<?xml version="1.0" standalone="no"?><!DOCTYPE svg PUBLIC "-//W3C//DTD SVG 1.1//EN" "http://www.w3.org/Graphics/SVG/1.1/DTD/svg11.dtd"><svg t="1706024184820" class="icon" viewBox="0 0 1024 1024" version="1.1" xmlns="http://www.w3.org/2000/svg" p-id="5275" xmlns:xlink="http://www.w3.org/1999/xlink" width="64" height="64"><path d="M960 0 64 0C28.624 0 0 28.624 0 64l0 896c0 35.376 28.624 64 64 64l896 0c35.376 0 64-28.624 64-64L1024 64C1024 28.624 995.376 0 960 0zM992 960c0 17.664-14.336 32-32 32L64 992c-17.664 0-32-14.336-32-32L32 224l960 0L992 960zM992 192 32 192 32 64c0-17.664 14.336-32 32-32l896 0c17.664 0 32 14.336 32 32L992 192z" fill="#9D0D79" p-id="5276"></path><path d="M112 64C85.488 64 64 85.488 64 112s21.488 48 48 48 48-21.488 48-48S138.512 64 112 64zM112 128C103.152 128 96 120.848 96 112s7.152-16 16-16 16 7.152 16 16S120.848 128 112 128z" fill="#9D0D79" p-id="5277"></path><path d="M528 64 240 64c-26.512 0-48 21.488-48 48s21.488 48 48 48l288 0c26.512 0 48-21.488 48-48S554.512 64 528 64zM528 128 240 128c-8.848 0-16-7.152-16-16s7.152-16 16-16l288 0c8.848 0 16 7.152 16 16S536.848 128 528 128z" fill="#9D0D79" p-id="5278"></path><path d="M176 384l288 0c8.848 0 16-7.152 16-16s-7.152-16-16-16L176 352c-8.848 0-16 7.152-16 16S167.152 384 176 384z" fill="#9D0D79" p-id="5279"></path><path d="M176 480l288 0c8.848 0 16-7.152 16-16s-7.152-16-16-16L176 448c-8.848 0-16 7.152-16 16S167.152 480 176 480z" fill="#9D0D79" p-id="5280"></path><path d="M176 576l288 0c8.848 0 16-7.152 16-16s-7.152-16-16-16L176 544c-8.848 0-16 7.152-16 16S167.152 576 176 576z" fill="#9D0D79" p-id="5281"></path><path d="M176 672l288 0c8.848 0 16-7.152 16-16s-7.152-16-16-16L176 640c-8.848 0-16 7.152-16 16S167.152 672 176 672z" fill="#9D0D79" p-id="5282"></path><path d="M176 768l672 0c8.848 0 16-7.152 16-16s-7.152-16-16-16L176 736c-8.848 0-16 7.152-16 16S167.152 768 176 768z" fill="#9D0D79" p-id="5283"></path><path d="M176 864l672 0c8.848 0 16-7.152 16-16s-7.152-16-16-16L176 832c-8.848 0-16 7.152-16 16S167.152 864 176 864z" fill="#9D0D79" p-id="5284"></path><path d="M560 672l288 0c8.848 0 16-7.152 16-16L864 368c0-8.848-7.152-16-16-16L560 352c-8.848 0-16 7.152-16 16l0 288C544 664.848 551.152 672 560 672zM576 384l256 0 0 256L576 640 576 384z" fill="#9D0D79" p-id="5285"></path></svg>